<?xml version="1.0" encoding="UTF-8"?>
<svg id="Capa_2" data-name="Capa 2" xmlns="http://www.w3.org/2000/svg" viewBox="0 0 400 156.8">
  <defs>
    <style>
      .cls-1 {
        fill: #171717;
      }
    </style>
  </defs>
  <g id="Capa_1-2" data-name="Capa 1">
    <path class="cls-1" d="m92.26,23.63v32.83c0,2.84-2.28,5.12-5.12,5.12H2.04c0,2.6,1.12,5.08,3.08,6.84l10.24,9.08c3.28,2.92,5.16,7.12,5.16,11.48v3.36c0,5.68-4.6,10.24-10.24,10.24S.04,97.98.04,92.34v-41.03c0-5.68,4.6-10.24,10.24-10.24h34.11c4.4,0,8.56,1.88,11.48,5.16l9.08,10.24c1.72,1.96,4.2,3.08,6.84,3.08V20.6H10.28C4.6,20.6.04,16,.04,10.36S4.64.12,10.28.12h34.11c4.4,0,8.56,1.88,11.48,5.16l9.08,10.24c1.72,1.96,4.2,3.08,6.84,3.08h15.4c2.84,0,5.12,2.28,5.12,5.12l-.04-.08Zm205.08,68.71c0,5.68-4.6,10.24-10.24,10.24h-34.11c-4.4,0-8.56-1.88-11.48-5.16l-9.08-10.24c-1.72-1.96-4.2-3.08-6.84-3.08h-15.4c-2.84,0-5.12-2.28-5.12-5.12V10.28c0-5.68,4.6-10.24,10.24-10.24s10.24,4.6,10.24,10.24v71.79h61.51c5.68,0,10.28,4.6,10.28,10.24v.04h0Zm-102.54-41.03v41.03c0,5.68-4.6,10.24-10.24,10.24s-10.24-4.6-10.24-10.24v-3.36c0-4.4,1.88-8.56,5.16-11.48l10.24-9.08c1.96-1.72,3.08-4.2,3.08-6.84h-69.75v30.75c0,5.68-4.6,10.24-10.24,10.24s-10.24-4.6-10.24-10.24V23.63c0-2.84,2.28-5.12,5.12-5.12h15.4c2.6,0,5.08-1.12,6.84-3.08l9.08-10.24c2.92-3.28,7.12-5.16,11.48-5.16h34.11c5.68,0,10.24,4.6,10.24,10.24s-4.6,10.24-10.24,10.24h-61.55v38.95c2.6,0,5.08-1.12,6.84-3.08l9.08-10.24c2.92-3.28,7.12-5.16,11.48-5.16h34.11c5.68,0,10.24,4.6,10.24,10.28v.04h0Zm205.08-27.67v68.71c0,5.68-4.6,10.24-10.24,10.24s-10.24-4.6-10.24-10.24V20.55h-33.83c0,2.6,1.12,5.08,3.08,6.84l10.24,9.08c3.28,2.92,5.16,7.12,5.16,11.48v44.35c0,5.68-4.6,10.24-10.24,10.24s-10.24-4.6-10.24-10.24V20.51h-33.83c0,2.6,1.12,5.08,3.08,6.84l10.24,9.08c3.28,2.92,5.16,7.12,5.16,11.48v44.35c0,5.68-4.6,10.24-10.24,10.24s-10.24-4.6-10.24-10.24V10.24c0-5.68,4.6-10.24,10.24-10.24h34.11c4.4,0,8.56,1.88,11.48,5.16l9.08,10.24c1.72,1.96,4.2,3.08,6.84,3.08h15.4c2.8,0,5.12,2.28,5.12,5.12l-.12.04ZM0,156.05v-39.11h6.12l19.92,32.23h.12v-32.23h5.04v39.11h-6.16L5.12,123.93h-.12v32.11H0Zm65.63-22.43h20.51v4.36h-20.51v13.72h23.88v4.36h-28.91v-39.11h28.24v4.36h-23.2v12.32h0Zm62.39,22.43v-34.75h-13.2v-4.36h31.43v4.36h-13.24v34.75h-5Zm43.03-39.11h5.28l7.52,32.03h.12l8.88-32.03h5.52l8.88,32.03h.12l7.52-32.03h5.28l-9.8,39.11h-5.56l-9.16-33.55h-.08l-9.16,33.55h-5.56l-9.8-39.11Zm106.34,34.19c-3.6,3.8-8.32,5.68-14.16,5.68s-10.52-1.92-14.16-5.72c-3.64-3.8-5.44-8.68-5.44-14.63s1.8-10.8,5.44-14.6c3.6-3.8,8.32-5.68,14.16-5.68s10.52,1.88,14.16,5.68c3.6,3.8,5.44,8.68,5.44,14.6s-1.8,10.84-5.44,14.68Zm-22.36-.92c2.28,1.48,5,2.24,8.2,2.24s5.92-.76,8.2-2.28c2.24-1.52,3.88-3.44,4.88-5.8s1.48-5,1.48-7.92-.48-5.56-1.48-7.88c-1-2.32-2.6-4.28-4.88-5.76-2.24-1.52-5-2.28-8.2-2.28s-5.92.76-8.2,2.28c-2.24,1.52-3.88,3.44-4.88,5.76-1,2.32-1.48,4.96-1.48,7.88s.48,5.56,1.48,7.92,2.6,4.28,4.84,5.84h.04Zm55.39,5.84v-39.11h16.2c4,0,7.16,1,9.56,3s3.6,4.68,3.6,8.12c0,5.4-2.4,8.68-7.16,9.84v.12c1.64.32,2.96,1.12,3.96,2.4s1.68,2.72,2,4.36c.32,1.64.56,3.28.68,4.88.12,1.6.24,3,.32,4.16.12,1.16.36,1.8.72,1.92v.32h-5.4c-.28-.24-.48-1-.52-2.24,0-1.24-.12-2.6-.2-4.04-.08-1.44-.32-2.92-.64-4.4s-1.08-2.72-2.16-3.68c-1.12-.96-2.64-1.44-4.52-1.44h-11.44v15.8h-5.04.04Zm5.04-34.75v14.56h10c1,0,1.88,0,2.6-.12.72-.08,1.56-.24,2.44-.52s1.64-.64,2.2-1.16c.56-.48,1.04-1.2,1.44-2.12.4-.92.6-2.04.6-3.36s-.2-2.44-.6-3.36c-.4-.92-.88-1.64-1.44-2.12-.56-.48-1.28-.88-2.2-1.16s-1.72-.44-2.44-.52-1.6-.12-2.6-.12h-10Zm52.23-4.36h5.04v20.96l19.96-20.96h6.12l-15.64,16.24,16.76,22.88h-5.84l-14.24-19.48-7.12,7.4v12.08h-5.04v-39.11h0Z"/>
  </g>
</svg>